<svg version="1.1" id="Layer_1" xmlns="http://www.w3.org/2000/svg" xmlns:xlink="http://www.w3.org/1999/xlink" x="0px" y="0px"
	 width="100%" viewBox="0 0 374 178" enable-background="new 0 0 374 178" xml:space="preserve">
<path fill="#FEFEFE" opacity="1.000000" stroke="none" 
	d="
M276.000000,179.000000 
	C184.000015,179.000000 92.500023,179.000000 1.000025,179.000000 
	C1.000016,119.666687 1.000016,60.333370 1.000008,1.000027 
	C63.333309,1.000000 125.666618,1.000000 187.999924,1.000000 
	C250.333252,1.000000 312.666565,1.000000 374.999939,1.000000 
	C374.999939,60.333294 374.999939,119.666588 374.999969,178.999939 
	C342.166656,179.000000 309.333344,179.000000 276.000000,179.000000 
M223.628021,116.000305 
	C221.192734,116.000305 218.757446,116.000305 216.010162,116.000305 
	C221.404678,136.349442 226.665375,156.193726 232.047241,176.495148 
	C277.847290,164.348495 323.160278,152.331009 368.743286,140.241913 
	C366.492371,131.743546 364.427734,123.948418 362.322571,116.000305 
	C316.166046,116.000305 270.379730,116.000305 223.628021,116.000305 
M289.440735,14.960391 
	C258.337097,23.194206 227.233459,31.428022 195.800323,39.749062 
	C197.969711,47.835922 200.006851,55.429745 201.982880,62.795784 
	C251.019409,62.795784 299.441986,62.795784 348.252197,62.795784 
	C342.996613,42.978195 337.821777,23.465187 332.525909,3.495785 
	C318.113220,7.345640 304.177795,11.068012 289.440735,14.960391 
M351.122253,77.611237 
	C351.122253,81.489487 351.122253,85.367744 351.122253,89.245995 
	C347.389069,84.768509 344.227692,80.319069 341.781952,75.505989 
	C339.310883,70.643173 335.836456,70.067085 331.238159,71.518707 
	C331.238159,82.960243 331.238159,94.202255 331.238159,105.722687 
	C333.886963,105.722687 336.272552,105.722687 339.313904,105.722687 
	C339.313904,99.538132 339.313904,93.573029 339.313904,87.607925 
	C343.025787,91.956833 346.117981,96.286652 348.538239,100.964157 
	C350.894623,105.518188 353.969910,107.233978 358.999756,105.435860 
	C358.999756,94.047112 358.999756,82.679123 358.999756,71.351967 
	C356.245544,71.351967 353.874084,71.351967 351.122345,71.351967 
	C351.122345,73.391747 351.122345,75.027756 351.122253,77.611237 
M304.628632,70.933044 
	C302.381805,70.933044 300.134979,70.933044 297.857361,70.933044 
	C297.857361,83.016449 297.857361,94.384003 297.857361,105.868073 
	C306.788849,105.868073 315.249542,105.868073 324.062500,105.868073 
	C324.062500,103.497009 324.062500,101.273125 324.062500,98.453064 
	C317.912079,98.453064 312.041565,98.453064 306.293945,98.453064 
	C306.293945,95.789124 306.293945,93.728104 306.293945,91.526978 
	C310.634308,91.526978 314.631256,91.438789 318.622131,91.556778 
	C321.466949,91.640884 322.354980,89.943130 321.680603,87.785461 
	C321.238098,86.369568 319.664215,84.435501 318.425842,84.300217 
	C314.379517,83.858208 310.254730,84.134453 306.180389,84.134453 
	C306.180389,81.916695 306.180389,80.310432 306.180389,78.204407 
	C311.970551,78.204407 317.539368,78.204407 323.601654,78.204407 
	C323.433014,75.480171 323.297394,73.289307 323.151520,70.933044 
	C316.912170,70.933044 311.256409,70.933044 304.628632,70.933044 
M161.747910,100.769669 
	C165.748169,106.763184 166.553497,107.062782 174.427444,105.135742 
	C171.792053,101.197754 169.256546,97.408997 166.713379,93.608788 
	C168.006699,92.606712 169.157166,91.898407 170.081635,90.966026 
	C173.366302,87.653297 174.640488,83.826515 173.324173,79.137123 
	C171.977539,74.339714 168.697632,71.632401 164.089249,71.278053 
	C158.011490,70.810722 151.870712,71.163132 145.459625,71.163132 
	C145.459625,82.851906 145.459625,94.220932 145.459625,105.704193 
	C148.227036,105.704193 150.626099,105.704193 153.642090,105.704193 
	C153.642090,96.501259 153.642090,87.593704 153.642090,78.134544 
	C158.131317,79.283272 163.717209,76.065773 164.916779,82.359512 
	C165.243469,84.073601 161.439682,86.574944 159.531555,88.714989 
	C159.129471,88.415031 158.727386,88.115074 158.325302,87.815117 
	C156.857758,92.497498 158.242493,96.522850 161.747910,100.769669 
M62.021023,72.308342 
	C48.363823,66.468315 39.278484,72.357300 39.275940,87.051468 
	C39.275623,88.881546 39.252285,90.711990 39.280029,92.541649 
	C39.428154,102.310074 46.158710,107.954437 55.986404,106.880585 
	C58.595612,106.595482 61.303799,107.216270 63.966541,107.421120 
	C65.983833,106.855949 70.640259,106.247665 66.870514,101.878265 
	C66.570206,101.530190 66.798347,100.694000 66.839394,100.088615 
	C67.218773,94.494041 67.699242,88.904625 67.971550,83.305023 
	C68.188477,78.844383 66.558380,75.184860 62.021023,72.308342 
M245.575424,106.258018 
	C253.415268,103.951591 255.960358,100.661842 256.013702,92.731445 
	C256.032715,89.903648 256.031982,87.075516 256.013916,84.247704 
	C255.956894,75.317352 250.678619,70.090233 241.711105,70.067703 
	C233.007919,70.045837 227.627731,75.168449 227.376007,83.774139 
	C227.303085,86.267250 227.356720,88.764290 227.364883,91.259491 
	C227.402191,102.660202 233.331558,107.839020 245.575424,106.258018 
M273.398346,70.940163 
	C269.992981,70.940163 266.587646,70.940163 263.267395,70.940163 
	C263.267395,83.027969 263.267395,94.271301 263.267395,105.872482 
	C268.670807,105.872482 273.825958,106.297928 278.882904,105.774666 
	C286.847351,104.950569 290.758484,100.099274 290.868652,91.930115 
	C290.888824,90.433296 290.871948,88.935974 290.871552,87.438881 
	C290.868317,75.354820 286.630585,71.123978 273.398346,70.940163 
M25.637613,96.558029 
	C22.909113,99.770927 17.059307,100.626793 15.523503,97.457001 
	C13.128517,92.513916 9.600378,94.139931 5.955057,94.303055 
	C5.394009,99.326851 7.715440,102.559044 11.656291,104.667480 
	C16.951014,107.500259 22.486012,107.597054 27.993034,105.223236 
	C32.287773,103.371986 34.169704,99.969116 34.137589,95.330040 
	C34.106804,90.883110 31.754234,88.208107 27.817165,86.755791 
	C24.556807,85.553093 21.136072,84.743790 17.972527,83.340553 
	C16.723782,82.786652 15.979244,81.096024 15.005120,79.923012 
	C16.448231,79.030556 17.820332,77.604454 19.355021,77.400238 
	C20.802597,77.207619 23.155483,77.838173 23.832712,78.912140 
	C26.261505,82.763763 29.451527,82.058342 34.021851,81.224022 
	C32.737919,78.505562 32.134872,75.831017 30.525290,74.083626 
	C25.752254,68.901955 14.735171,68.821999 9.426969,73.569321 
	C4.522373,77.955681 5.054771,85.523758 10.803864,88.769493 
	C13.639454,90.370369 17.029785,90.955956 20.047167,92.279045 
	C22.050220,93.157349 23.837297,94.528206 25.637613,96.558029 
M197.445053,106.004158 
	C200.700699,106.004158 203.956360,106.004158 207.042191,106.004158 
	C208.476562,98.775963 208.304062,98.558548 201.762878,98.552559 
	C197.659012,98.548798 193.555130,98.551857 189.357407,98.551857 
	C189.357407,95.926781 189.357407,93.851524 189.357407,91.351440 
	C194.582993,91.351440 199.528885,91.351440 204.392548,91.351440 
	C205.597061,84.209267 205.553558,84.154198 199.004440,84.148849 
	C195.734985,84.146179 192.465530,84.148384 188.982681,84.148384 
	C189.118561,81.916046 189.215210,80.328232 189.334534,78.367874 
	C193.424591,78.367874 197.222992,78.372002 201.021393,78.366959 
	C207.463211,78.358398 207.624207,78.143211 206.170456,71.279289 
	C197.862152,71.279289 189.509186,71.279289 181.180710,71.279289 
	C181.180710,82.981529 181.180710,94.346542 181.180710,106.004158 
	C186.536392,106.004158 191.500168,106.004158 197.445053,106.004158 
M87.714119,106.848335 
	C96.228462,106.453293 101.626678,103.776428 102.106514,98.038040 
	C102.846756,89.185448 102.301483,80.225357 102.301483,71.236275 
	C99.663803,71.236275 97.247276,71.236275 94.255531,71.236275 
	C94.255531,73.162178 94.256866,74.786636 94.255287,76.411095 
	C94.249763,82.075119 94.354370,87.742149 94.201775,93.402222 
	C94.080666,97.894035 91.733727,99.718147 87.441872,99.125763 
	C83.842216,98.628906 82.934624,96.249641 82.948837,93.069588 
	C82.981323,85.801956 82.959106,78.534073 82.959106,71.239525 
	C79.805016,71.239525 77.392326,71.239525 74.497536,71.239525 
	C74.497536,78.175873 74.488930,84.815491 74.499527,91.455086 
	C74.516083,101.832695 76.737572,104.578613 87.714119,106.848335 
M140.223099,104.743813 
	C136.565399,94.640488 132.781219,84.580101 129.327377,74.407562 
	C128.296112,71.370163 126.521500,70.951828 123.762871,70.851273 
	C120.785782,70.742744 119.236786,71.786446 118.260124,74.562469 
	C115.680656,81.894264 112.875031,89.146210 110.197571,96.443939 
	C109.095955,99.446526 108.092110,102.484978 107.033867,105.535736 
	C112.590683,106.923622 116.541023,106.303528 117.344910,100.124870 
	C120.952675,100.124870 124.269753,100.002304 127.568771,100.192635 
	C128.694122,100.257553 130.592728,100.929527 130.745972,101.629074 
	C132.032043,107.500122 136.160965,106.178169 140.223099,104.743813 
z"/>
<path fill="#010101" opacity="1.000000" stroke="none" 
	d="
M224.110703,116.000305 
	C270.379730,116.000305 316.166046,116.000305 362.322571,116.000305 
	C364.427734,123.948418 366.492371,131.743546 368.743286,140.241913 
	C323.160278,152.331009 277.847290,164.348495 232.047241,176.495148 
	C226.665375,156.193726 221.404678,136.349442 216.010162,116.000305 
	C218.757446,116.000305 221.192734,116.000305 224.110703,116.000305 
z"/>
<path fill="#010101" opacity="1.000000" stroke="none" 
	d="
M289.841553,14.875387 
	C304.177795,11.068012 318.113220,7.345640 332.525909,3.495785 
	C337.821777,23.465187 342.996613,42.978195 348.252197,62.795784 
	C299.441986,62.795784 251.019409,62.795784 201.982880,62.795784 
	C200.006851,55.429745 197.969711,47.835922 195.800323,39.749062 
	C227.233459,31.428022 258.337097,23.194206 289.841553,14.875387 
z"/>
<path fill="#040404" opacity="1.000000" stroke="none" 
	d="
M351.122314,77.137505 
	C351.122345,75.027756 351.122345,73.391747 351.122345,71.351967 
	C353.874084,71.351967 356.245544,71.351967 358.999756,71.351967 
	C358.999756,82.679123 358.999756,94.047112 358.999756,105.435860 
	C353.969910,107.233978 350.894623,105.518188 348.538239,100.964157 
	C346.117981,96.286652 343.025787,91.956833 339.313904,87.607925 
	C339.313904,93.573029 339.313904,99.538132 339.313904,105.722687 
	C336.272552,105.722687 333.886963,105.722687 331.238159,105.722687 
	C331.238159,94.202255 331.238159,82.960243 331.238159,71.518707 
	C335.836456,70.067085 339.310883,70.643173 341.781952,75.505989 
	C344.227692,80.319069 347.389069,84.768509 351.122253,89.245995 
	C351.122253,85.367744 351.122253,81.489487 351.122314,77.137505 
z"/>
<path fill="#090909" opacity="1.000000" stroke="none" 
	d="
M305.114624,70.933044 
	C311.256409,70.933044 316.912170,70.933044 323.151520,70.933044 
	C323.297394,73.289307 323.433014,75.480171 323.601654,78.204407 
	C317.539368,78.204407 311.970551,78.204407 306.180389,78.204407 
	C306.180389,80.310432 306.180389,81.916695 306.180389,84.134453 
	C310.254730,84.134453 314.379517,83.858208 318.425842,84.300217 
	C319.664215,84.435501 321.238098,86.369568 321.680603,87.785461 
	C322.354980,89.943130 321.466949,91.640884 318.622131,91.556778 
	C314.631256,91.438789 310.634308,91.526978 306.293945,91.526978 
	C306.293945,93.728104 306.293945,95.789124 306.293945,98.453064 
	C312.041565,98.453064 317.912079,98.453064 324.062500,98.453064 
	C324.062500,101.273125 324.062500,103.497009 324.062500,105.868073 
	C315.249542,105.868073 306.788849,105.868073 297.857361,105.868073 
	C297.857361,94.384003 297.857361,83.016449 297.857361,70.933044 
	C300.134979,70.933044 302.381805,70.933044 305.114624,70.933044 
z"/>
<path fill="#0B0B0B" opacity="1.000000" stroke="none" 
	d="
M161.515961,100.468109 
	C158.242493,96.522850 156.857758,92.497498 158.325302,87.815117 
	C158.727386,88.115074 159.129471,88.415031 159.531555,88.714989 
	C161.439682,86.574944 165.243469,84.073601 164.916779,82.359512 
	C163.717209,76.065773 158.131317,79.283272 153.642090,78.134544 
	C153.642090,87.593704 153.642090,96.501259 153.642090,105.704193 
	C150.626099,105.704193 148.227036,105.704193 145.459625,105.704193 
	C145.459625,94.220932 145.459625,82.851906 145.459625,71.163132 
	C151.870712,71.163132 158.011490,70.810722 164.089249,71.278053 
	C168.697632,71.632401 171.977539,74.339714 173.324173,79.137123 
	C174.640488,83.826515 173.366302,87.653297 170.081635,90.966026 
	C169.157166,91.898407 168.006699,92.606712 166.713379,93.608788 
	C169.256546,97.408997 171.792053,101.197754 174.427444,105.135742 
	C166.553497,107.062782 165.748169,106.763184 161.515961,100.468109 
z"/>
<path fill="#090909" opacity="1.000000" stroke="none" 
	d="
M62.325233,72.532845 
	C66.558380,75.184860 68.188477,78.844383 67.971550,83.305023 
	C67.699242,88.904625 67.218773,94.494041 66.839394,100.088615 
	C66.798347,100.694000 66.570206,101.530190 66.870514,101.878265 
	C70.640259,106.247665 65.983833,106.855949 63.966541,107.421120 
	C61.303799,107.216270 58.595612,106.595482 55.986404,106.880585 
	C46.158710,107.954437 39.428154,102.310074 39.280029,92.541649 
	C39.252285,90.711990 39.275623,88.881546 39.275940,87.051468 
	C39.278484,72.357300 48.363823,66.468315 62.325233,72.532845 
M56.761868,98.690811 
	C62.049580,94.168198 59.222591,88.149452 59.482822,82.788742 
	C59.656406,79.212906 56.927986,77.564941 53.456482,77.679749 
	C49.959484,77.795395 47.864048,79.516090 47.864288,83.250404 
	C47.864468,86.074043 47.815357,88.897995 47.843914,91.721252 
	C47.910095,98.264542 49.221455,99.419357 56.761868,98.690811 
z"/>
<path fill="#090909" opacity="1.000000" stroke="none" 
	d="
M245.182526,106.370941 
	C233.331558,107.839020 227.402191,102.660202 227.364883,91.259491 
	C227.356720,88.764290 227.303085,86.267250 227.376007,83.774139 
	C227.627731,75.168449 233.007919,70.045837 241.711105,70.067703 
	C250.678619,70.090233 255.956894,75.317352 256.013916,84.247704 
	C256.031982,87.075516 256.032715,89.903648 256.013702,92.731445 
	C255.960358,100.661842 253.415268,103.951591 245.182526,106.370941 
M239.820755,77.893692 
	C238.500015,79.730827 236.466171,81.413300 236.026245,83.441490 
	C235.372314,86.456383 235.902542,89.717163 235.824783,92.870735 
	C235.725281,96.905602 237.464706,99.182030 241.648392,99.228317 
	C245.868744,99.275024 247.574326,96.808182 247.695770,92.943535 
	C247.784409,90.122986 247.731445,87.297356 247.712219,84.474190 
	C247.680466,79.813416 245.605972,77.275757 239.820755,77.893692 
z"/>
<path fill="#060606" opacity="1.000000" stroke="none" 
	d="
M273.872498,70.940422 
	C286.630585,71.123978 290.868317,75.354820 290.871552,87.438881 
	C290.871948,88.935974 290.888824,90.433296 290.868652,91.930115 
	C290.758484,100.099274 286.847351,104.950569 278.882904,105.774666 
	C273.825958,106.297928 268.670807,105.872482 263.267395,105.872482 
	C263.267395,94.271301 263.267395,83.027969 263.267395,70.940163 
	C266.587646,70.940163 269.992981,70.940163 273.872498,70.940422 
M271.206512,84.663376 
	C271.206512,89.247696 271.206512,93.832024 271.206512,99.996841 
	C275.427887,98.384651 280.706177,97.728111 281.114044,95.952667 
	C282.239990,91.051750 282.096222,85.479790 280.804260,80.611107 
	C280.359711,78.935791 275.040955,78.553879 271.206512,77.347557 
	C271.206512,80.463783 271.206512,82.094955 271.206512,84.663376 
z"/>
<path fill="#090909" opacity="1.000000" stroke="none" 
	d="
M25.679333,96.118301 
	C23.837297,94.528206 22.050220,93.157349 20.047167,92.279045 
	C17.029785,90.955956 13.639454,90.370369 10.803864,88.769493 
	C5.054771,85.523758 4.522373,77.955681 9.426969,73.569321 
	C14.735171,68.821999 25.752254,68.901955 30.525290,74.083626 
	C32.134872,75.831017 32.737919,78.505562 34.021851,81.224022 
	C29.451527,82.058342 26.261505,82.763763 23.832712,78.912140 
	C23.155483,77.838173 20.802597,77.207619 19.355021,77.400238 
	C17.820332,77.604454 16.448231,79.030556 15.005119,79.923004 
	C15.979244,81.096024 16.723782,82.786652 17.972527,83.340553 
	C21.136072,84.743790 24.556807,85.553093 27.817165,86.755791 
	C31.754234,88.208107 34.106804,90.883110 34.137589,95.330040 
	C34.169704,99.969116 32.287773,103.371986 27.993034,105.223236 
	C22.486012,107.597054 16.951014,107.500259 11.656291,104.667480 
	C7.715440,102.559044 5.394009,99.326851 5.955057,94.303055 
	C9.600378,94.139931 13.128517,92.513916 15.523503,97.457001 
	C17.059307,100.626793 22.909113,99.770927 25.679333,96.118301 
z"/>
<path fill="#030303" opacity="1.000000" stroke="none" 
	d="
M196.954498,106.004158 
	C191.500168,106.004158 186.536392,106.004158 181.180710,106.004158 
	C181.180710,94.346542 181.180710,82.981529 181.180710,71.279289 
	C189.509186,71.279289 197.862152,71.279289 206.170456,71.279289 
	C207.624207,78.143211 207.463211,78.358398 201.021393,78.366959 
	C197.222992,78.372002 193.424591,78.367874 189.334534,78.367874 
	C189.215210,80.328232 189.118561,81.916046 188.982681,84.148384 
	C192.465530,84.148384 195.734985,84.146179 199.004440,84.148849 
	C205.553558,84.154198 205.597061,84.209267 204.392548,91.351440 
	C199.528885,91.351440 194.582993,91.351440 189.357407,91.351440 
	C189.357407,93.851524 189.357407,95.926781 189.357407,98.551857 
	C193.555130,98.551857 197.659012,98.548798 201.762878,98.552559 
	C208.304062,98.558548 208.476562,98.775963 207.042191,106.004158 
	C203.956360,106.004158 200.700699,106.004158 196.954498,106.004158 
z"/>
<path fill="#0A0A0A" opacity="1.000000" stroke="none" 
	d="
M87.296432,106.822754 
	C76.737572,104.578613 74.516083,101.832695 74.499527,91.455086 
	C74.488930,84.815491 74.497536,78.175873 74.497536,71.239525 
	C77.392326,71.239525 79.805016,71.239525 82.959106,71.239525 
	C82.959106,78.534073 82.981323,85.801956 82.948837,93.069588 
	C82.934624,96.249641 83.842216,98.628906 87.441872,99.125763 
	C91.733727,99.718147 94.080666,97.894035 94.201775,93.402222 
	C94.354370,87.742149 94.249763,82.075119 94.255287,76.411095 
	C94.256866,74.786636 94.255531,73.162178 94.255531,71.236275 
	C97.247276,71.236275 99.663803,71.236275 102.301483,71.236275 
	C102.301483,80.225357 102.846756,89.185448 102.106514,98.038040 
	C101.626678,103.776428 96.228462,106.453293 87.296432,106.822754 
z"/>
<path fill="#060606" opacity="1.000000" stroke="none" 
	d="
M140.138031,105.172958 
	C136.160965,106.178169 132.032043,107.500122 130.745972,101.629074 
	C130.592728,100.929527 128.694122,100.257553 127.568771,100.192635 
	C124.269753,100.002304 120.952675,100.124870 117.344910,100.124870 
	C116.541023,106.303528 112.590683,106.923622 107.033867,105.535736 
	C108.092110,102.484978 109.095955,99.446526 110.197571,96.443939 
	C112.875031,89.146210 115.680656,81.894264 118.260124,74.562469 
	C119.236786,71.786446 120.785782,70.742744 123.762871,70.851273 
	C126.521500,70.951828 128.296112,71.370163 129.327377,74.407562 
	C132.781219,84.580101 136.565399,94.640488 140.138031,105.172958 
M124.905006,83.777672 
	C124.568207,83.252632 124.231400,82.727592 123.541885,81.652718 
	C122.235542,85.636177 121.117607,89.045090 119.924530,92.683151 
	C122.770058,92.683151 125.050652,92.683151 127.746422,92.683151 
	C126.795334,89.775276 125.933952,87.141640 124.905006,83.777672 
z"/>
<path fill="#F7F7F7" opacity="1.000000" stroke="none" 
	d="
M56.367188,98.826241 
	C49.221455,99.419357 47.910095,98.264542 47.843914,91.721252 
	C47.815357,88.897995 47.864468,86.074043 47.864288,83.250404 
	C47.864048,79.516090 49.959484,77.795395 53.456482,77.679749 
	C56.927986,77.564941 59.656406,79.212906 59.482822,82.788742 
	C59.222591,88.149452 62.049580,94.168198 56.367188,98.826241 
z"/>
<path fill="#F7F7F7" opacity="1.000000" stroke="none" 
	d="
M240.241425,77.829651 
	C245.605972,77.275757 247.680466,79.813416 247.712219,84.474190 
	C247.731445,87.297356 247.784409,90.122986 247.695770,92.943535 
	C247.574326,96.808182 245.868744,99.275024 241.648392,99.228317 
	C237.464706,99.182030 235.725281,96.905602 235.824783,92.870735 
	C235.902542,89.717163 235.372314,86.456383 236.026245,83.441490 
	C236.466171,81.413300 238.500015,79.730827 240.241425,77.829651 
z"/>
<path fill="#F3F3F3" opacity="1.000000" stroke="none" 
	d="
M271.206512,84.194748 
	C271.206512,82.094955 271.206512,80.463783 271.206512,77.347557 
	C275.040955,78.553879 280.359711,78.935791 280.804260,80.611107 
	C282.096222,85.479790 282.239990,91.051750 281.114044,95.952667 
	C280.706177,97.728111 275.427887,98.384651 271.206512,99.996841 
	C271.206512,93.832024 271.206512,89.247696 271.206512,84.194748 
z"/>
<path fill="#E7E7E7" opacity="1.000000" stroke="none" 
	d="
M124.988785,84.142838 
	C125.933952,87.141640 126.795334,89.775276 127.746422,92.683151 
	C125.050652,92.683151 122.770058,92.683151 119.924530,92.683151 
	C121.117607,89.045090 122.235542,85.636177 123.541885,81.652718 
	C124.231400,82.727592 124.568207,83.252632 124.988785,84.142838 
z"/>
</svg>