<?xml version="1.0" standalone="no"?>
<!DOCTYPE svg PUBLIC "-//W3C//DTD SVG 20010904//EN"
 "http://www.w3.org/TR/2001/REC-SVG-20010904/DTD/svg10.dtd">
<svg version="1.0" xmlns="http://www.w3.org/2000/svg"
 width="500.000000pt" height="500.000000pt" viewBox="0 0 500.000000 500.000000"
 preserveAspectRatio="xMidYMid meet">

<g transform="translate(0.000000,500.000000) scale(0.100000,-0.100000)"
fill="#000000" stroke="none">
<path d="M3155 3500 c-331 -49 -615 -261 -765 -571 -22 -46 -40 -89 -40 -96 0
-8 11 -13 28 -13 23 0 30 8 51 58 110 260 353 470 631 544 124 33 348 33 470
0 265 -73 485 -252 603 -494 48 -98 54 -107 80 -108 35 0 33 9 -28 135 -137
282 -410 486 -724 539 -98 17 -219 19 -306 6z"/>
<path d="M814 2690 c-59 -18 -91 -76 -72 -130 11 -33 36 -52 93 -69 79 -24 95
-33 95 -52 0 -45 -95 -45 -115 -1 -7 17 -18 22 -47 22 -33 0 -38 -3 -38 -23 0
-103 216 -141 265 -46 37 70 6 126 -83 152 -70 21 -92 35 -92 57 0 39 80 38
100 -1 13 -24 68 -26 77 -3 22 59 -96 120 -183 94z"/>
<path d="M1158 2688 c-21 -5 -49 -23 -63 -40 -23 -27 -25 -37 -25 -133 0 -97
2 -106 26 -134 30 -36 87 -54 142 -45 25 4 42 2 46 -5 10 -16 42 -13 57 5 10
12 10 20 1 35 -9 14 -9 25 -2 39 16 30 12 177 -5 214 -27 57 -104 84 -177 64z
m100 -85 c13 -18 17 -150 4 -170 -14 -22 -57 -32 -83 -19 -22 11 -24 18 -27
96 -3 78 -1 87 19 103 26 21 66 16 87 -10z"/>
<path d="M3033 2689 c-17 -5 -43 -23 -57 -40 -24 -29 -26 -37 -26 -136 0 -102
1 -105 28 -133 71 -70 212 -52 241 32 16 44 14 173 -3 213 -23 55 -112 86
-183 64z m105 -86 c13 -18 17 -150 4 -170 -14 -22 -57 -32 -83 -19 -22 11 -24
18 -27 96 -3 78 -1 87 19 103 26 21 66 16 87 -10z"/>
<path d="M1420 2556 c0 -76 5 -146 11 -159 26 -58 142 -80 211 -40 47 27 59
72 56 212 l-3 116 -37 3 -38 3 0 -113 c0 -70 -5 -122 -13 -137 -16 -31 -48
-42 -78 -27 -23 11 -24 17 -29 141 l-5 130 -37 3 -38 3 0 -135z"/>
<path d="M1859 2663 c-51 -133 -109 -297 -109 -309 0 -9 12 -14 36 -14 30 0
37 4 45 30 11 29 13 30 78 30 65 0 67 -1 78 -30 10 -26 16 -30 47 -30 20 0 36
4 36 10 0 5 -27 84 -61 175 l-61 165 -39 0 c-34 0 -41 -4 -50 -27z m75 -137
c9 -27 16 -51 16 -53 0 -2 -18 -3 -40 -3 -22 0 -40 3 -40 7 0 21 35 112 41
106 3 -5 14 -30 23 -57z"/>
<path d="M2124 2677 c-2 -7 -3 -85 -2 -172 l3 -160 38 -3 37 -3 0 140 0 141
43 0 c53 0 80 -18 75 -50 -3 -22 -15 -33 -50 -44 -31 -9 -23 -69 18 -131 34
-50 40 -55 74 -55 20 0 39 3 43 6 3 4 -11 31 -33 61 l-39 55 34 33 c30 27 35
39 35 76 0 87 -50 119 -185 119 -61 0 -87 -4 -91 -13z"/>
<path d="M2480 2515 l0 -175 130 0 130 0 0 35 0 35 -90 0 -90 0 0 40 0 40 75
0 c43 0 76 4 76 10 1 6 2 17 2 25 0 8 -1 20 -2 25 0 6 -33 10 -76 10 l-75 0 0
30 0 30 85 0 85 0 0 35 0 35 -125 0 -125 0 0 -175z"/>
<path d="M3302 2518 l3 -173 78 -3 c91 -3 154 19 178 65 22 40 19 191 -4 225
-27 39 -85 58 -177 58 l-80 0 2 -172z m172 89 c12 -9 20 -31 24 -65 9 -94 -14
-132 -79 -132 l-39 0 0 105 0 105 38 0 c21 0 46 -6 56 -13z"/>
<path d="M3650 2515 l0 -175 130 0 130 0 0 35 0 35 -90 0 -90 0 0 40 0 40 74
0 c41 0 77 4 81 10 3 5 3 21 -1 35 -6 24 -9 25 -80 25 l-74 0 0 30 0 30 85 0
85 0 0 35 0 35 -125 0 -125 0 0 -175z"/>
<path d="M3982 2518 l3 -173 37 -3 37 -3 3 102 3 102 61 -99 c57 -94 62 -99
97 -102 l37 -3 0 176 0 176 -37 -3 -38 -3 -5 -94 -5 -95 -59 97 c-58 96 -59
97 -97 97 l-39 0 2 -172z"/>
<path d="M2360 2168 c0 -27 83 -181 138 -254 210 -282 564 -436 910 -394 231
28 423 120 583 280 109 108 175 206 232 343 l16 37 -32 -1 c-30 0 -34 -5 -75
-90 -92 -192 -264 -356 -461 -439 -134 -57 -222 -74 -381 -74 -159 0 -251 18
-377 74 -202 91 -388 277 -473 473 -22 49 -29 57 -52 57 -16 0 -28 -5 -28 -12z"/>
</g>
</svg>
