<?xml version="1.0" standalone="no"?>
<!DOCTYPE svg PUBLIC "-//W3C//DTD SVG 20010904//EN"
 "http://www.w3.org/TR/2001/REC-SVG-20010904/DTD/svg10.dtd">
<svg version="1.0" xmlns="http://www.w3.org/2000/svg"
 width="500.000000pt" height="500.000000pt" viewBox="0 0 500.000000 500.000000"
 preserveAspectRatio="xMidYMid meet">

<g transform="translate(0.000000,500.000000) scale(0.100000,-0.100000)"
fill="#f1f1f1f1" stroke="none">
<path d="M3193 3182 c-364 -97 -664 -179 -667 -182 -5 -6 9 -69 40 -177 l15
-53 729 0 c402 0 730 3 730 6 0 4 -34 136 -77 295 -60 228 -79 289 -92 288 -9
0 -314 -80 -678 -177z"/>
<path d="M683 2679 c-47 -23 -68 -62 -58 -108 9 -40 45 -68 114 -87 31 -9 62
-22 70 -30 23 -21 -4 -44 -50 -44 -32 0 -42 5 -51 25 -9 20 -18 25 -50 25 -34
0 -38 -3 -38 -26 0 -16 13 -39 33 -59 44 -44 108 -55 172 -30 55 20 75 47 75
98 0 51 -29 78 -114 107 -72 24 -91 44 -60 67 24 17 64 9 83 -17 9 -13 25 -20
47 -20 29 0 34 3 34 24 0 51 -65 96 -140 96 -14 0 -44 -9 -67 -21z"/>
<path d="M1024 2680 c-22 -11 -47 -32 -55 -47 -19 -36 -19 -201 0 -236 22 -41
92 -71 148 -63 36 5 51 2 65 -11 17 -15 20 -15 43 7 22 20 23 26 11 39 -9 10
-11 23 -6 36 5 11 9 60 9 108 1 108 -13 141 -72 168 -54 24 -92 24 -143 -1z
m120 -82 c10 -14 16 -44 16 -83 0 -76 -18 -105 -64 -105 -17 0 -37 5 -44 12
-16 16 -16 170 0 186 21 21 75 15 92 -10z"/>
<path d="M2904 2680 c-58 -29 -69 -56 -69 -172 l0 -100 37 -33 c49 -45 109
-55 171 -27 62 28 77 59 77 167 0 106 -15 139 -73 166 -54 24 -92 24 -143 -1z
m120 -82 c10 -14 16 -44 16 -83 0 -76 -18 -105 -64 -105 -17 0 -37 5 -44 12
-16 16 -16 170 0 186 21 21 75 15 92 -10z"/>
<path d="M1310 2549 c0 -81 5 -149 11 -161 13 -25 84 -58 124 -58 17 0 49 9
73 20 62 28 73 61 70 213 l-3 122 -40 0 -40 0 -3 -124 c-1 -71 -7 -130 -14
-138 -13 -16 -70 -17 -86 -1 -8 8 -12 54 -12 140 l0 128 -40 0 -40 0 0 -141z"/>
<path d="M1756 2682 c-6 -10 -126 -331 -126 -337 0 -3 18 -5 41 -5 36 0 41 3
50 30 11 29 13 30 75 30 60 0 64 -1 79 -30 13 -25 22 -30 50 -30 22 0 35 5 35
13 0 7 -26 85 -59 172 l-59 160 -40 3 c-22 2 -43 -1 -46 -6z m67 -164 l16 -48
-41 0 c-30 0 -39 3 -35 14 3 8 11 33 18 55 14 48 20 45 42 -21z"/>
<path d="M2014 2677 c-2 -7 -3 -85 -2 -172 l3 -160 34 -3 c20 -2 37 2 42 10 5
7 9 70 9 141 l0 127 29 0 c16 0 42 -5 56 -10 21 -8 26 -16 23 -36 -3 -26 -14
-37 -50 -48 -31 -9 -23 -69 18 -131 35 -53 39 -55 80 -55 24 0 44 3 44 8 0 4
-16 31 -35 60 l-36 53 30 30 c59 58 46 155 -23 184 -46 20 -214 21 -222 2z"/>
<path d="M2370 2515 l0 -176 133 3 132 3 3 32 3 32 -93 3 -93 3 0 35 0 35 78
3 78 3 -3 32 -3 32 -77 3 -78 3 0 29 0 30 91 0 90 0 -3 33 -3 32 -127 3 -128
3 0 -176z"/>
<path d="M3190 2514 l0 -176 98 4 c147 6 182 40 182 175 0 131 -46 173 -192
173 l-88 0 0 -176z m168 90 c19 -13 22 -24 22 -88 0 -84 -9 -98 -68 -100 l-37
-1 -3 89 c-2 49 -1 95 2 103 7 18 57 16 84 -3z"/>
<path d="M3535 2677 c-3 -7 -4 -85 -3 -172 l3 -160 133 -3 132 -3 0 36 0 35
-90 0 -90 0 0 40 0 40 81 0 80 0 -3 33 -3 32 -77 3 -78 3 0 29 0 29 88 3 87 3
0 30 0 30 -128 3 c-98 2 -129 0 -132 -11z"/>
<path d="M3870 2515 l0 -175 40 0 40 0 0 98 c1 111 -3 112 80 -20 46 -73 51
-78 85 -78 l35 0 0 176 0 175 -37 -3 -38 -3 -5 -92 -5 -93 -58 95 c-58 94 -59
95 -98 95 l-39 0 0 -175z"/>
<path d="M2723 2228 c2 -7 37 -139 77 -293 41 -154 77 -284 81 -289 7 -8 1346
339 1360 353 3 3 -8 58 -25 121 l-31 115 -734 3 c-585 2 -732 0 -728 -10z"/>
</g>
</svg>
